# AST/ASF file generated using VICON BodyLanguage
# -----------------------------------------------
:version 1.10
:name VICON
:units
  mass 1.0
  length 0.45
  angle deg
:documentation
   .ast/.asf automatically generated from VICON data using
   VICON BodyBuilder and BodyLanguage model FoxedUp or BRILLIANT.MOD
:root
   order TX TY TZ RX RY RZ
   axis XYZ
   position 0 0 0  
   orientation 0 0 0 
:bonedata
  begin
     id 1 
     name lhipjoint
     direction 0.643824 -0.71708 0.266994 
     length 2.52133 
     axis 0 0 0  XYZ
  end
  begin
     id 2 
     name lfemur
     direction 0.34202 -0.939693 0  
     length 7.51824  
     axis 0 0 20  XYZ
    dof rx ry rz
    limits (-160.0 20.0)
           (-70.0 70.0)
           (-60.0 70.0)
  end
  begin
     id 3 
     name ltibia
     direction 0.34202 -0.939693 0   
     length 7.3685   
     axis 0 0 20   XYZ
    dof rx
    limits (-10.0 170.0)
  end
  begin
     id 4 
     name lfoot
     direction 0.105419 -0.289636 0.951314   
     length 2.20972   
     axis -90 7.62852e-016 20   XYZ
    dof rx rz
    limits (-45.0 90.0)
           (-70.0 20.0)
  end
  begin
     id 5 
     name ltoes
     direction 1.53549e-011 -4.21833e-011 1   
     length 1.10139   
     axis -90 7.62852e-016 20   XYZ
    dof rx
    limits (-90.0 20.0)
  end
  begin
     id 6 
     name rhipjoint
     direction -0.608823 -0.743445 0.276811   
     length 2.43192  
     axis 0 0 0  XYZ 
  end
  begin
     id 7 
     name rfemur
     direction -0.34202 -0.939693 0   
     length 7.69715   
     axis 0 0 -20   XYZ
    dof rx ry rz
    limits (-160.0 20.0)
           (-70.0 70.0)
           (-70.0 60.0)
  end
  begin
     id 8 
     name rtibia
     direction -0.34202 -0.939693 0   
     length 7.44924   
     axis 0 0 -20   XYZ
    dof rx
    limits (-10.0 170.0)
 end
 begin
     id 9 
     name rfoot
     direction -0.103614 -0.284677 0.953007   
     length 2.22623  
     axis -90 -7.62852e-016 -20   XYZ
    dof rx rz
    limits (-45.0 90.0)
           (-20.0 70.0)
  end
  begin
     id 10 
     name rtoes
     direction -1.53537e-011 -4.22026e-011 1   
     length 1.11   
     axis -90 -7.62852e-016 -20   XYZ
    dof rx
    limits (-90.0 20.0)
  end
  begin
     id 11 
     name lowerback
     direction -0.0101212 0.99662 -0.0815298   
     length 2.08277   
     axis 0 0 0   XYZ
    dof rx ry rz
    limits (-20.0 45.0)
           (-30.0 30.0)
           (-30.0 30.0)
  end
  begin
     id 12 
     name upperback
     direction 0.024314 0.999591 -0.0150645   
     length 2.08524   
     axis 0 0 0   XYZ
    dof rx ry rz
    limits (-20.0 45.0)
           (-30.0 30.0)
           (-30.0 30.0)
  end
  begin
     id 13 
     name thorax
     direction 0.0285959 0.999323 0.0231357   
     length 2.09645   
     axis 0 0 0   XYZ
    dof rx ry rz
    limits (-20.0 45.0)
           (-30.0 30.0)
           (-30.0 30.0)
  end
  begin
     id 14 
     name lowerneck
     direction -0.065512 0.979301 0.191515   
     length 1.63798   
     axis 0 0 0   XYZ
    dof rx ry rz
    limits (-20.0 45.0)
           (-30.0 30.0)
           (-30.0 30.0)
  end
  begin
     id 15 
     name upperneck
     direction 0.0498479 0.98191 -0.182667   
     length 1.68731   
     axis 0 0 0   XYZ
    dof rx ry rz
    limits (-20.0 45.0)
           (-30.0 30.0)
           (-30.0 30.0)
  end
  begin
     id 16
     name head
     direction 0.0230358 0.996257 -0.0833175  
     length 1.69785  
     axis 0 0 0   XYZ
    dof rx ry rz
    limits (-20.0 45.0)
           (-30.0 30.0)
           (-30.0 30.0)
  end
  begin
     id 17 
     name lclavicle
     direction 0.967963 0.201165 -0.150269  
     length 3.63976  
     axis 0 0 0   XYZ
    dof ry rz
    limits (-20.0 10.0)
           (0.0 20.0)
  end
  begin
     id 18 
     name lhumerus
     direction 1 -4.48954e-011 -2.92837e-028   
     length 5.32462   
     axis 180 -30 -90   XYZ
    dof rx ry rz
    limits (-60.0 90.0)
           (-90.0 90.0)
           (-90.0 90.0)
  end
  begin
     id 19
     name lradius
     direction 1 -4.48958e-011 -6.39511e-027   
     length 3.48402   
     axis 180 -30 -90   XYZ
    dof rx
    limits (-10.0 170.0)
  end
  begin
     id 20
     name lwrist
     direction 1 -4.48975e-011 -1.1413e-026   
     length 1.74201   
     axis 6.88575e-015 90 90   XYZ
    dof ry
    limits (-180.0 0.0)
 end
  begin
     id 21 
     name lhand
     direction 1 -4.48899e-011 -2.28192e-026   
     length 0.572476   
     axis 1.45643e-014 90 90   XYZ
    dof rx rz
    limits (-90.0 90.0)
           (-45.0 45.0)
  end
  begin
     id 22 
     name lfingers
     direction 1 -4.49155e-011 -4.5684e-026   
     length 0.461545   
     axis 2.91283e-014 90 90   XYZ
    dof rx
    limits (0.0 90.0)
  end
  begin
     id 23
     name lthumb
     direction 0.707107 -6.34943e-011 0.707107   
     length 0.662688   
     axis -90 45 -2.25915e-014   XYZ
    dof rx rz
    limits (-45.0 45.0)
           (-45.0 45.0)
  end
  begin
     id 24 
     name rclavicle
     direction -0.964103 0.264019 -0.0282629   
     length 3.54491  
     axis 0 0 0   XYZ 
    dof ry rz
    limits (-10.0 20.0)
           (-20.0 0.0)
  end
  begin
     id 25 
     name rhumerus
     direction -1 -4.48964e-011 -2.45032e-027  
     length 5.33589   
     axis 180 30 90   XYZ
    dof rx ry rz
    limits (-90.0 60.0)
           (-90.0 90.0)
           (-90.0 90.0)
  end
  begin
     id 26 
     name rradius
     direction -1 -4.48987e-011 -1.55093e-027   
     length 3.64134   
     axis 180 30 90   XYZ
    dof rx
    limits (-10.0 170.0)
  end
  begin
     id 27 
     name rwrist
     direction -1 -4.4897e-011 -1.14128e-026   
     length 1.82067   
     axis 6.88575e-015 -90 -90   XYZ
    dof ry
    limits (-180.0 0.0)
  end
  begin
     id 28
     name rhand
     direction -1 -4.49021e-011 -2.28301e-026   
     length 0.734811   
     axis 1.45643e-014 -90 -90   XYZ
    dof rx rz
    limits (-90.0 90.0)
           (-45.0 45.0)
  end
  begin
     id 29
     name rfingers
     direction -1 -4.48862e-011 -4.56319e-026   
     length 0.592424   
     axis 2.91283e-014 -90 -90   XYZ
    dof rx
    limits (0.0 90.0)
  end
  begin
     id 30
     name rthumb
     direction -0.707107 -6.34978e-011 0.707107   
     length 0.850605   
     axis -90 -45 2.25915e-014   XYZ
    dof rx rz
    limits (-45.0 45.0)
           (-45.0 45.0)
  end
:hierarchy
  begin
    root lhipjoint rhipjoint lowerback
    lhipjoint lfemur
    lfemur ltibia
    ltibia lfoot
    lfoot ltoes
    rhipjoint rfemur
    rfemur rtibia
    rtibia rfoot
    rfoot rtoes
    lowerback upperback
    upperback thorax
    thorax lowerneck lclavicle rclavicle
    lowerneck upperneck
    upperneck head
    lclavicle lhumerus
    lhumerus lradius
    lradius lwrist
    lwrist lhand lthumb
    lhand lfingers
    rclavicle rhumerus
    rhumerus rradius
    rradius rwrist
    rwrist rhand rthumb
    rhand rfingers
  end

#!OML:ASF F:\VICON\USERDATA\INSTALL\rory3\rory3.ASF
:FULLY-SPECIFIED
:DEGREES
1
root 0.0325777 17.94 -4.11115 17.7169 -12.0823 0.00291798
lowerback 8.21119 0.0273231 -5.27264
upperback 2.44353 -0.370123 1.0938
thorax -2.02537 -0.184099 4.13992
lowerneck -14.3051 -8.13668 -14.167
upperneck 10.3904 -9.7135 11.1749
head 6.76318 -4.45344 4.86135
rclavicle -2.18663e-015 -1.66979e-014
rhumerus -29.2265 23.0792 -97.9739
rradius 38.1062
rwrist 30.5293
rhand -30.7585 4.52146
rfingers 7.12502
rthumb -4.04993 -25.4198
lclavicle -2.18663e-015 -1.66979e-014
lhumerus -31.9867 -24.2898 99.8245
lradius 41.9213
lwrist 0.439827
lhand -16.2846 23.6385
lfingers 7.12502
lthumb 9.92556 53.3845
rfemur -27.1664 -3.26169 17.4331
rtibia 34.5195
rfoot -19.6383 -6.30756
rtoes -0.446749
lfemur -33.7794 4.62413 -23.2496
ltibia 23.1939
lfoot -4.38697 2.50307
ltoes -6.11664
2
root -0.000928462 17.9351 -4.14314 17.8728 -11.9862 -0.0764615
lowerback 8.30872 0.0305093 -5.16442
upperback 2.41624 -0.361636 1.13829
thorax -2.10941 -0.176993 4.12547
lowerneck -14.3224 -8.07702 -14.1334
upperneck 10.2678 -9.62939 11.1867
head 6.71483 -4.41034 4.87056
rclavicle 2.64881e-014 8.84592e-015
rhumerus -29.3117 23.2012 -98.0911
rradius 38.0503
rwrist 30.3328
rhand -30.503 4.47418
rfingers 7.12502
rthumb -3.80325 -25.4716
lclavicle 2.64881e-014 8.84592e-015
lhumerus -31.9487 -24.2767 99.8121
lradius 41.9529
lwrist 0.563472
lhand -18.5884 22.9202
lfingers 7.12502
lthumb 7.70242 52.7599
rfemur -27.0981 -2.9531 17.6386
rtibia 33.9453
rfoot -19.8919 -6.53264
rtoes 0.26778
lfemur -34.0188 4.40628 -22.9308
ltibia 23.1911
lfoot -4.25874 2.69391
ltoes -6.19273
3
root -0.0354877 17.935 -4.17778 18.0229 -11.8261 -0.0611334
lowerback 8.37215 -0.00116174 -5.15265
upperback 2.40787 -0.404516 1.19522
thorax -2.14819 -0.197056 4.18327
lowerneck -14.4844 -8.0123 -14.0979
upperneck 10.2304 -9.51952 11.1613
head 6.71254 -4.35278 4.86681
rclavicle 8.92046e-015 2.59414e-014
rhumerus -29.2807 23.4683 -98.1837
rradius 37.9363
rwrist 29.9969
rhand -30.0247 4.249
rfingers 7.12502
rthumb -3.34135 -25.7046
lclavicle 8.92046e-015 2.59414e-014
lhumerus -31.8711 -24.4024 99.8498
lradius 41.9522
lwrist 0.752228
lhand -17.8439 23.5475
lfingers 7.12502
lthumb 8.42101 53.3596
rfemur -27.0788 -2.72917 17.7789
rtibia 33.5146
rfoot -20.2485 -6.724
rtoes 1.66337
lfemur -34.2405 4.27741 -22.7596
ltibia 23.0559
lfoot -4.04647 2.69618
ltoes -6.44321
4
root -0.0679745 17.9372 -4.20761 18.1724 -11.6747 -0.120875
lowerback 8.36047 -0.00431429 -5.03481
upperback 2.4049 -0.396598 1.2569
thorax -2.14631 -0.193323 4.18006
lowerneck -14.4614 -7.94478 -14.019
upperneck 10.0771 -9.42259 11.0766
head 6.63848 -4.31 4.83928
rclavicle -1.26725e-015 -1.63997e-014
rhumerus -29.3037 23.5724 -98.2302
rradius 37.8539
rwrist 30.0785
rhand -29.8539 4.19445
rfingers 7.12502
rthumb -3.17636 -25.7616
lclavicle -1.26725e-015 -1.63997e-014
lhumerus -31.8466 -24.3917 99.904
lradius 41.8906
lwrist 0.44926
lhand -17.6295 23.4589
lfingers 7.12502
lthumb 8.62793 53.2626
rfemur -27.0424 -2.63695 18.0317
rtibia 33.0965
rfoot -20.4503 -6.95633
rtoes 1.95906
lfemur -34.4326 4.04642 -22.4602
ltibia 22.954
lfoot -3.89016 2.82545
ltoes -6.41952
5
root -0.0989993 17.9354 -4.23621 18.3338 -11.6097 -0.183295
lowerback 8.29947 0.0106019 -4.90202
upperback 2.43236 -0.361602 1.2847
thorax -2.08882 -0.178355 4.12951
lowerneck -14.5075 -7.88007 -13.7947
upperneck 9.87026 -9.32629 10.8564
head 6.54482 -4.26956 4.74177
rclavicle 4.80562e-014 -2.93207e-014
rhumerus -29.2885 23.634 -98.2838
rradius 37.6928
rwrist 30.4514
rhand -29.9656 4.19703
rfingers 7.12502
rthumb -3.28423 -25.7574
lclavicle 4.80562e-014 -2.93207e-014
lhumerus -31.7795 -24.3474 99.8785
lradius 41.8888
lwrist 0.283461
lhand -18.4743 22.8504
lfingers 7.12502
lthumb 7.81253 52.686
rfemur -27.0758 -2.55244 18.2807
rtibia 32.7509
rfoot -20.595 -7.18334
rtoes 1.62638
lfemur -34.5883 3.58423 -22.0591
ltibia 22.8211
lfoot -3.66959 3.29079
ltoes -6.10711
6
root -0.129713 17.9324 -4.26759 18.4765 -11.5472 -0.140543
lowerback 8.27036 0.0191745 -4.84556
upperback 2.468 -0.343614 1.28494
thorax -2.03813 -0.171639 4.09545
lowerneck -14.6109 -7.84397 -13.7287
upperneck 9.67009 -9.26092 10.8426
head 6.48611 -4.23346 4.73251
rclavicle -2.19906e-015 1.17034e-014
rhumerus -29.1782 23.8522 -98.3465
rradius 37.441
rwrist 30.4641
rhand -29.9485 4.19033
rfingers 7.12502
rthumb -3.26768 -25.7644
lclavicle -2.19906e-015 1.17034e-014
lhumerus -31.6697 -24.4559 99.8867
lradius 41.8715
lwrist 0.49366
lhand -17.8989 23.2247
lfingers 7.12502
lthumb 8.36789 53.039
rfemur -27.1623 -2.51489 18.4389
rtibia 32.4332
rfoot -20.7152 -7.50243
rtoes 1.50395
lfemur -34.7655 3.00599 -21.7198
ltibia 22.7092
lfoot -3.4549 3.80553
ltoes -6.25523
7
root -0.165494 17.9323 -4.29896 18.5623 -11.5091 -0.165221
lowerback 8.28062 0.0593661 -4.78507
upperback 2.52328 -0.285033 1.29025
thorax -1.99313 -0.145005 4.06077
lowerneck -14.7253 -7.7972 -13.6072
upperneck 9.53475 -9.19289 10.8079
head 6.44592 -4.1952 4.7077
rclavicle 7.30534e-015 -4.02539e-015
rhumerus -29.0835 24.0807 -98.4602
rradius 37.2597
rwrist 30.3023
rhand -29.8375 4.14112
rfingers 7.12502
rthumb -3.16053 -25.8152
lclavicle 7.30534e-015 -4.02539e-015
lhumerus -31.5635 -24.5626 99.857
lradius 41.8587
lwrist 0.595646
lhand -17.0425 23.6981
lfingers 7.12502
lthumb 9.19435 53.4776
rfemur -27.1834 -2.43963 18.6692
rtibia 32.1378
rfoot -20.8963 -7.74213
rtoes 2.00443
lfemur -34.9037 2.86117 -21.4635
ltibia 22.6229
lfoot -3.27454 3.91544
ltoes -6.70896
8
root -0.200061 17.9338 -4.32756 18.5737 -11.5043 -0.200499
lowerback 8.39087 0.0953909 -4.75808
upperback 2.54929 -0.238865 1.33862
thorax -2.032 -0.121702 4.09232
lowerneck -14.7456 -7.73031 -13.5352
upperneck 9.34951 -9.09136 10.7403
head 6.37062 -4.14789 4.68647
rclavicle -1.64556e-014 -5.06901e-015
rhumerus -29.2037 24.3956 -98.568
rradius 37.2079
rwrist 30.3109
rhand -29.9728 4.27193
rfingers 7.12502
rthumb -3.29123 -25.6824
lclavicle -1.64556e-014 -5.06901e-015
lhumerus -31.5161 -24.5584 99.884
lradius 41.8378
lwrist 0.66566
lhand -16.9757 23.7265
lfingers 7.12502
lthumb 9.25876 53.5032
rfemur -27.112 -2.39175 18.9006
rtibia 31.861
rfoot -21.1035 -7.86827
rtoes 2.46282
lfemur -34.9352 2.82274 -21.2388
ltibia 22.5351
lfoot -3.15831 3.96553
ltoes -6.82639
9
root -0.232019 17.9336 -4.35758 18.5741 -11.499 -0.20742
lowerback 8.58127 0.142894 -4.7044
upperback 2.53609 -0.180077 1.3625
thorax -2.15762 -0.0889344 4.08263
lowerneck -14.7911 -7.67982 -13.5257
upperneck 9.2562 -9.01142 10.7346
head 6.33783 -4.108 4.69222
rclavicle -3.25836e-014 3.42655e-014
rhumerus -29.3682 24.5527 -98.6025
rradius 37.2613
rwrist 30.7046
rhand -30.0236 4.61388
rfingers 7.12502
rthumb -3.34026 -25.3397
lclavicle -3.25836e-014 3.42655e-014
lhumerus -31.53 -24.6819 99.9902
lradius 41.7241
lwrist 0.739995
lhand -17.1264 23.4539
lfingers 7.12502
lthumb 9.11339 53.237
rfemur -27.0522 -2.35194 19.0821
rtibia 31.5837
rfoot -21.2794 -7.90639
rtoes 3.41881
lfemur -34.9674 2.58825 -20.9654
ltibia 22.4719
lfoot -3.04894 4.18402
ltoes -6.83545
10
root -0.265331 17.9345 -4.3913 18.6236 -11.5071 -0.279796
lowerback 8.71124 0.210006 -4.60677
upperback 2.52615 -0.0881352 1.39644
thorax -2.24997 -0.0407899 4.05428
lowerneck -14.9571 -7.63287 -13.4877
upperneck 9.2824 -8.93478 10.7286
head 6.36212 -4.06498 4.69003
rclavicle 7.20594e-015 -1.20886e-014
rhumerus -29.3935 24.4986 -98.5004
rradius 37.3511
rwrist 31.5342
rhand -29.4587 4.82572
rfingers 7.12502
rthumb -2.79467 -25.1357
lclavicle 7.20594e-015 -1.20886e-014
lhumerus -31.5522 -24.8083 100.085
lradius 41.6897
lwrist 0.827055
lhand -17.1022 23.3235
lfingers 7.12502
lthumb 9.13671 53.1056
rfemur -27.0416 -2.1854 19.3029
rtibia 31.3199
rfoot -21.5037 -8.01954
rtoes 4.73338
lfemur -35.029 2.13914 -20.5087
ltibia 22.4264
lfoot -2.95538 4.69031
ltoes -7.05699
11
root -0.301773 17.935 -4.4253 18.6602 -11.5055 -0.323736
lowerback 8.77897 0.248617 -4.58003
upperback 2.55226 -0.0362211 1.44318
thorax -2.26576 -0.0152683 4.08287
lowerneck -15.2097 -7.58382 -13.3676
upperneck 9.30388 -8.8458 10.617
head 6.3885 -4.01805 4.63949
rclavicle 1.33807e-014 8.57259e-015
rhumerus -29.3115 24.6527 -98.4604
rradius 37.2707
rwrist 32.0075
rhand -29.0224 4.86627
rfingers 7.12502
rthumb -2.37338 -25.1003
lclavicle 1.33807e-014 8.57259e-015
lhumerus -31.4296 -24.8551 100.108
lradius 41.6168
lwrist 0.924944
lhand -17.1115 23.3866
lfingers 7.12502
lthumb 9.12776 53.1691
rfemur -27.0356 -1.96419 19.4867
rtibia 31.0861
rfoot -21.6991 -8.25445
rtoes 5.39862
lfemur -35.0734 1.65672 -20.0673
ltibia 22.3786
lfoot -2.91309 5.23449
ltoes -7.45005
